<svg width="317" height="158" viewBox="0 0 317 158" fill="none" xmlns="http://www.w3.org/2000/svg">
<g filter="url(#filter0_d_6_48)">
<rect x="10" y="10" width="297" height="138" rx="5" fill="white" shape-rendering="crispEdges"/>
<path d="M32.518 50V38.741H28.396V36.986H38.395V38.741H34.462V50H32.518ZM42.8108 50.18C41.9408 50.18 41.1818 49.994 40.5338 49.622C39.8858 49.244 39.3818 48.698 39.0218 47.984C38.6618 47.27 38.4818 46.406 38.4818 45.392C38.4818 44.414 38.6528 43.559 38.9948 42.827C39.3368 42.095 39.8288 41.528 40.4708 41.126C41.1188 40.718 41.9018 40.514 42.8198 40.514C43.6958 40.514 44.4548 40.706 45.0968 41.09C45.7388 41.468 46.2368 42.023 46.5908 42.755C46.9448 43.481 47.1218 44.36 47.1218 45.392C47.1218 46.334 46.9568 47.165 46.6268 47.885C46.2968 48.605 45.8108 49.169 45.1688 49.577C44.5328 49.979 43.7468 50.18 42.8108 50.18ZM42.8198 48.695C43.3538 48.695 43.7978 48.557 44.1518 48.281C44.5058 47.999 44.7728 47.606 44.9528 47.102C45.1328 46.592 45.2228 46.004 45.2228 45.338C45.2228 44.72 45.1418 44.159 44.9798 43.655C44.8238 43.145 44.5688 42.74 44.2148 42.44C43.8668 42.14 43.4018 41.99 42.8198 41.99C42.2858 41.99 41.8358 42.128 41.4698 42.404C41.1098 42.674 40.8398 43.061 40.6598 43.565C40.4798 44.063 40.3898 44.654 40.3898 45.338C40.3898 45.944 40.4708 46.502 40.6328 47.012C40.7948 47.522 41.0528 47.93 41.4068 48.236C41.7668 48.542 42.2378 48.695 42.8198 48.695ZM52.5915 50.063C51.9015 50.063 51.3675 49.97 50.9895 49.784C50.6115 49.598 50.3475 49.331 50.1975 48.983C50.0475 48.629 49.9725 48.203 49.9725 47.705V42.08H48.4605V40.694H50.0355L50.5035 37.958H51.9075V40.685H53.9955V42.08H51.9075L51.9165 47.633C51.9165 47.939 51.9465 48.164 52.0065 48.308C52.0725 48.446 52.1805 48.536 52.3305 48.578C52.4865 48.614 52.6965 48.632 52.9605 48.632H54.0405V49.883C53.9265 49.931 53.7495 49.973 53.5095 50.009C53.2755 50.045 52.9695 50.063 52.5915 50.063ZM58.9375 50.18C58.3375 50.18 57.8035 50.072 57.3355 49.856C56.8735 49.64 56.5105 49.328 56.2465 48.92C55.9825 48.512 55.8505 48.02 55.8505 47.444C55.8505 46.412 56.2135 45.641 56.9395 45.131C57.6715 44.621 58.8415 44.351 60.4495 44.321L61.9795 44.276V43.601C61.9795 43.067 61.8205 42.647 61.5025 42.341C61.1845 42.035 60.6925 41.885 60.0265 41.891C59.5345 41.891 59.0935 42.005 58.7035 42.233C58.3135 42.461 58.0585 42.836 57.9385 43.358H56.2735C56.3095 42.74 56.4865 42.221 56.8045 41.801C57.1285 41.375 57.5725 41.054 58.1365 40.838C58.7005 40.622 59.3605 40.514 60.1165 40.514C60.9685 40.514 61.6675 40.631 62.2135 40.865C62.7595 41.093 63.1645 41.429 63.4285 41.873C63.6985 42.317 63.8335 42.857 63.8335 43.493V50H62.1955L62.0515 48.29C61.7035 49.004 61.2625 49.499 60.7285 49.775C60.1945 50.045 59.5975 50.18 58.9375 50.18ZM59.5405 48.839C59.8345 48.839 60.1255 48.788 60.4135 48.686C60.7015 48.578 60.9625 48.434 61.1965 48.254C61.4305 48.068 61.6165 47.861 61.7545 47.633C61.8985 47.405 61.9735 47.171 61.9795 46.931V45.392L60.7195 45.419C60.0775 45.425 59.5315 45.491 59.0815 45.617C58.6375 45.743 58.2955 45.938 58.0555 46.202C57.8215 46.466 57.7045 46.817 57.7045 47.255C57.7045 47.753 57.8755 48.143 58.2175 48.425C58.5655 48.701 59.0065 48.839 59.5405 48.839ZM69.002 50.126C68.45 50.126 68.006 50.054 67.67 49.91C67.34 49.766 67.088 49.574 66.914 49.334C66.74 49.088 66.623 48.812 66.563 48.506C66.509 48.194 66.482 47.873 66.482 47.543V36.626H68.381V47.345C68.381 47.777 68.465 48.107 68.633 48.335C68.807 48.563 69.071 48.692 69.425 48.722L69.911 48.74V49.964C69.761 50.012 69.605 50.051 69.443 50.081C69.287 50.111 69.14 50.126 69.002 50.126ZM77.0454 50V36.986H81.5544C82.4844 36.986 83.3154 37.145 84.0474 37.463C84.7854 37.781 85.3644 38.249 85.7844 38.867C86.2104 39.485 86.4234 40.244 86.4234 41.144C86.4234 42.008 86.2284 42.746 85.8384 43.358C85.4544 43.964 84.9144 44.429 84.2184 44.753C83.5284 45.071 82.7274 45.23 81.8154 45.23H79.0074V50H77.0454ZM78.9984 43.655H81.7614C82.5894 43.655 83.2644 43.418 83.7864 42.944C84.3084 42.464 84.5694 41.828 84.5694 41.036C84.5694 40.232 84.2994 39.617 83.7594 39.191C83.2194 38.759 82.5294 38.543 81.6894 38.543H78.9984V43.655ZM88.4146 50V40.694H90.2596V42.602C90.4156 42.146 90.6316 41.765 90.9076 41.459C91.1896 41.147 91.5166 40.913 91.8886 40.757C92.2606 40.595 92.6536 40.514 93.0676 40.514C93.1936 40.514 93.3136 40.523 93.4276 40.541C93.5416 40.553 93.6316 40.577 93.6976 40.613V42.467C93.6196 42.431 93.5176 42.407 93.3916 42.395C93.2716 42.383 93.1666 42.374 93.0766 42.368C92.6686 42.338 92.2966 42.359 91.9606 42.431C91.6246 42.503 91.3336 42.623 91.0876 42.791C90.8476 42.959 90.6616 43.178 90.5296 43.448C90.4036 43.718 90.3406 44.036 90.3406 44.402V50H88.4146ZM99.4419 50.18C98.5719 50.18 97.8129 49.994 97.1649 49.622C96.5169 49.244 96.0129 48.698 95.6529 47.984C95.2929 47.27 95.1129 46.406 95.1129 45.392C95.1129 44.414 95.2839 43.559 95.6259 42.827C95.9679 42.095 96.4599 41.528 97.1019 41.126C97.7499 40.718 98.5329 40.514 99.4509 40.514C100.327 40.514 101.086 40.706 101.728 41.09C102.37 41.468 102.868 42.023 103.222 42.755C103.576 43.481 103.753 44.36 103.753 45.392C103.753 46.334 103.588 47.165 103.258 47.885C102.928 48.605 102.442 49.169 101.8 49.577C101.164 49.979 100.378 50.18 99.4419 50.18ZM99.4509 48.695C99.9849 48.695 100.429 48.557 100.783 48.281C101.137 47.999 101.404 47.606 101.584 47.102C101.764 46.592 101.854 46.004 101.854 45.338C101.854 44.72 101.773 44.159 101.611 43.655C101.455 43.145 101.2 42.74 100.846 42.44C100.498 42.14 100.033 41.99 99.4509 41.99C98.9169 41.99 98.4669 42.128 98.1009 42.404C97.7409 42.674 97.4709 43.061 97.2909 43.565C97.1109 44.063 97.0209 44.654 97.0209 45.338C97.0209 45.944 97.1019 46.502 97.2639 47.012C97.4259 47.522 97.6839 47.93 98.0379 48.236C98.3979 48.542 98.8689 48.695 99.4509 48.695ZM105.523 52.988C105.025 52.988 104.707 52.949 104.569 52.871C104.425 52.799 104.353 52.763 104.353 52.763V51.476L105.217 51.422C105.619 51.386 105.901 51.278 106.063 51.098C106.231 50.918 106.315 50.63 106.315 50.234V40.694H108.241V50.288C108.241 51.194 108.037 51.869 107.629 52.313C107.221 52.763 106.519 52.988 105.523 52.988ZM106.261 38.894V36.995H108.277V38.894H106.261ZM115.1 50.18C114.218 50.18 113.441 49.991 112.769 49.613C112.097 49.229 111.572 48.683 111.194 47.975C110.822 47.267 110.636 46.424 110.636 45.446C110.636 44.48 110.807 43.628 111.149 42.89C111.491 42.146 111.986 41.564 112.634 41.144C113.282 40.724 114.062 40.514 114.974 40.514C115.868 40.514 116.624 40.706 117.242 41.09C117.86 41.474 118.328 42.014 118.646 42.71C118.964 43.4 119.123 44.216 119.123 45.158V45.797H112.571C112.565 46.355 112.655 46.856 112.841 47.3C113.027 47.738 113.303 48.086 113.669 48.344C114.041 48.596 114.503 48.722 115.055 48.722C115.613 48.722 116.093 48.596 116.495 48.344C116.903 48.092 117.17 47.717 117.296 47.219H119.078C118.97 47.855 118.715 48.395 118.313 48.839C117.911 49.283 117.428 49.619 116.864 49.847C116.3 50.069 115.712 50.18 115.1 50.18ZM112.571 44.546H117.287C117.287 44.06 117.203 43.619 117.035 43.223C116.867 42.821 116.609 42.506 116.261 42.278C115.919 42.044 115.487 41.927 114.965 41.927C114.431 41.927 113.987 42.056 113.633 42.314C113.279 42.572 113.012 42.902 112.832 43.304C112.658 43.706 112.571 44.12 112.571 44.546ZM125.321 50.18C124.481 50.18 123.734 49.997 123.08 49.631C122.426 49.259 121.913 48.716 121.541 48.002C121.169 47.282 120.983 46.409 120.983 45.383C120.983 44.417 121.154 43.568 121.496 42.836C121.844 42.104 122.342 41.534 122.99 41.126C123.638 40.718 124.415 40.514 125.321 40.514C126.023 40.514 126.644 40.652 127.184 40.928C127.724 41.198 128.162 41.576 128.498 42.062C128.84 42.548 129.047 43.115 129.119 43.763H127.445C127.397 43.457 127.283 43.172 127.103 42.908C126.923 42.644 126.686 42.434 126.392 42.278C126.098 42.116 125.747 42.035 125.339 42.035C124.589 42.035 123.98 42.308 123.512 42.854C123.044 43.4 122.81 44.237 122.81 45.365C122.81 46.397 123.029 47.219 123.467 47.831C123.905 48.443 124.538 48.749 125.366 48.749C125.774 48.749 126.125 48.665 126.419 48.497C126.713 48.329 126.947 48.113 127.121 47.849C127.301 47.585 127.415 47.312 127.463 47.03H129.101C129.029 47.654 128.822 48.203 128.48 48.677C128.144 49.151 127.706 49.52 127.166 49.784C126.626 50.048 126.011 50.18 125.321 50.18ZM134.671 50.063C133.981 50.063 133.447 49.97 133.069 49.784C132.691 49.598 132.427 49.331 132.277 48.983C132.127 48.629 132.052 48.203 132.052 47.705V42.08H130.54V40.694H132.115L132.583 37.958H133.987V40.685H136.075V42.08H133.987L133.996 47.633C133.996 47.939 134.026 48.164 134.086 48.308C134.152 48.446 134.26 48.536 134.41 48.578C134.566 48.614 134.776 48.632 135.04 48.632H136.12V49.883C136.006 49.931 135.829 49.973 135.589 50.009C135.355 50.045 135.049 50.063 134.671 50.063ZM141.844 50.18C141.196 50.18 140.587 50.078 140.017 49.874C139.453 49.67 138.979 49.349 138.595 48.911C138.217 48.473 137.98 47.912 137.884 47.228H139.603C139.681 47.582 139.828 47.876 140.044 48.11C140.266 48.338 140.53 48.509 140.836 48.623C141.148 48.731 141.481 48.785 141.835 48.785C142.423 48.785 142.9 48.68 143.266 48.47C143.632 48.254 143.815 47.924 143.815 47.48C143.815 47.162 143.716 46.907 143.518 46.715C143.32 46.523 143.011 46.382 142.591 46.292L140.737 45.851C139.969 45.671 139.354 45.386 138.892 44.996C138.43 44.6 138.196 44.048 138.19 43.34C138.19 42.794 138.325 42.308 138.595 41.882C138.871 41.456 139.279 41.123 139.819 40.883C140.365 40.637 141.037 40.514 141.835 40.514C142.885 40.514 143.728 40.748 144.364 41.216C145.006 41.684 145.336 42.362 145.354 43.25H143.689C143.629 42.824 143.434 42.491 143.104 42.251C142.78 42.005 142.351 41.882 141.817 41.882C141.265 41.882 140.812 41.993 140.458 42.215C140.104 42.431 139.927 42.764 139.927 43.214C139.927 43.52 140.056 43.763 140.314 43.943C140.578 44.117 140.965 44.261 141.475 44.375L143.239 44.816C143.695 44.936 144.07 45.095 144.364 45.293C144.658 45.485 144.889 45.698 145.057 45.932C145.225 46.166 145.342 46.409 145.408 46.661C145.48 46.913 145.516 47.15 145.516 47.372C145.516 47.96 145.366 48.464 145.066 48.884C144.772 49.298 144.352 49.619 143.806 49.847C143.26 50.069 142.606 50.18 141.844 50.18Z" fill="black"/>
<path d="M48.466 127.142C47.8378 127.138 47.3016 127.035 46.8575 126.833C46.4171 126.627 46.0777 126.335 45.8394 125.956C45.6047 125.577 45.4838 125.125 45.4766 124.602H46.9984C47.0742 125.046 47.2475 125.367 47.5182 125.566C47.789 125.764 48.1104 125.864 48.4822 125.864C48.8072 125.864 49.0852 125.817 49.3162 125.723C49.5509 125.629 49.7296 125.499 49.8524 125.333C49.9787 125.163 50.0419 124.97 50.0419 124.754C50.0419 124.53 49.9769 124.337 49.8469 124.174C49.7206 124.012 49.5437 123.885 49.3162 123.795C49.0888 123.701 48.8288 123.651 48.5364 123.643L47.789 123.616V122.36L48.4606 122.322C48.7422 122.311 48.9877 122.259 49.1971 122.165C49.4065 122.071 49.5689 121.946 49.6845 121.791C49.8036 121.632 49.8632 121.454 49.8632 121.255C49.8632 121.064 49.8036 120.898 49.6845 120.757C49.5653 120.616 49.4011 120.506 49.1917 120.427C48.9823 120.347 48.7422 120.307 48.4714 120.307C48.2223 120.307 47.993 120.349 47.7836 120.432C47.5742 120.515 47.4027 120.652 47.2691 120.844C47.1355 121.031 47.0579 121.284 47.0363 121.602H45.5253C45.5253 121.038 45.6571 120.571 45.9206 120.199C46.1878 119.827 46.5471 119.549 46.9984 119.365C47.4496 119.177 47.9515 119.083 48.5039 119.083C49.0888 119.083 49.6087 119.159 50.0636 119.311C50.5221 119.463 50.8831 119.694 51.1467 120.004C51.4102 120.315 51.542 120.708 51.542 121.185C51.542 121.571 51.4301 121.912 51.2063 122.208C50.9824 122.501 50.6178 122.734 50.1123 122.907C50.4011 122.986 50.6683 123.107 50.9138 123.27C51.1593 123.432 51.3561 123.64 51.5041 123.892C51.6521 124.145 51.7262 124.448 51.7262 124.802C51.7262 125.185 51.6413 125.523 51.4716 125.815C51.3019 126.107 51.0673 126.353 50.7676 126.552C50.4679 126.75 50.1213 126.898 49.7278 126.996C49.3343 127.093 48.9137 127.142 48.466 127.142ZM56.0915 127.142C55.5789 127.142 55.1023 127.062 54.6618 126.904C54.2214 126.745 53.8405 126.528 53.5191 126.254C53.1978 125.976 52.9541 125.658 52.788 125.301L54.0228 124.569C54.1636 124.815 54.3224 125.037 54.4994 125.236C54.6763 125.431 54.8803 125.586 55.1113 125.701C55.346 125.813 55.6186 125.869 55.9291 125.869C56.3984 125.869 56.7757 125.745 57.0609 125.496C57.3462 125.246 57.4888 124.921 57.4888 124.521C57.4888 124.268 57.4238 124.042 57.2938 123.844C57.1674 123.642 56.9923 123.483 56.7685 123.367C56.5446 123.252 56.2829 123.194 55.9832 123.194C55.8244 123.194 55.6727 123.208 55.5283 123.237C55.3875 123.262 55.2431 123.313 55.0951 123.389C54.9507 123.461 54.79 123.566 54.6131 123.703C54.5625 123.725 54.5264 123.735 54.5048 123.735C54.4867 123.735 54.4506 123.723 54.3965 123.698L53.2484 123.167L53.6058 119.192H58.6369L58.5773 120.486H54.8568L54.7052 122.376C54.994 122.214 55.2684 122.096 55.5283 122.024C55.7919 121.952 56.0807 121.916 56.3948 121.916C56.9183 121.916 57.3859 122.015 57.7974 122.214C58.2126 122.409 58.5412 122.696 58.7831 123.075C59.025 123.454 59.1459 123.916 59.1459 124.461C59.1459 125.014 59.0214 125.49 58.7723 125.891C58.5231 126.292 58.1693 126.6 57.7108 126.817C57.2559 127.034 56.7161 127.142 56.0915 127.142ZM61.5971 127.066L66.8881 119.105H67.8033L62.5394 127.066H61.5971ZM62.2145 123.513C61.839 123.513 61.5014 123.416 61.2017 123.221C60.9021 123.022 60.6656 122.757 60.4923 122.425C60.319 122.093 60.2323 121.723 60.2323 121.315C60.2323 120.899 60.319 120.522 60.4923 120.183C60.6692 119.843 60.9075 119.574 61.2072 119.376C61.5068 119.174 61.8426 119.073 62.2145 119.073C62.5863 119.073 62.9203 119.174 63.2163 119.376C63.5124 119.574 63.7471 119.843 63.9204 120.183C64.0937 120.522 64.1803 120.899 64.1803 121.315C64.1803 121.723 64.0955 122.093 63.9258 122.425C63.7561 122.757 63.5214 123.022 63.2218 123.221C62.9257 123.416 62.5899 123.513 62.2145 123.513ZM62.2036 122.712C62.4888 122.712 62.6964 122.595 62.8264 122.36C62.9564 122.122 63.0214 121.773 63.0214 121.315C63.0214 120.842 62.9546 120.482 62.821 120.237C62.6874 119.991 62.4816 119.869 62.2036 119.869C61.9292 119.869 61.7252 119.993 61.5917 120.242C61.4581 120.488 61.3913 120.845 61.3913 121.315C61.3913 121.77 61.4563 122.116 61.5862 122.354C61.7198 122.593 61.9256 122.712 62.2036 122.712ZM67.3538 127.131C66.9748 127.131 66.6354 127.034 66.3357 126.839C66.036 126.644 65.7996 126.38 65.6263 126.048C65.453 125.712 65.3663 125.337 65.3663 124.921C65.3663 124.506 65.453 124.129 65.6263 123.79C65.8032 123.45 66.0415 123.181 66.3411 122.983C66.6444 122.78 66.982 122.679 67.3538 122.679C67.7257 122.679 68.0597 122.78 68.3557 122.983C68.6554 123.181 68.8919 123.45 69.0652 123.79C69.2385 124.129 69.3251 124.506 69.3251 124.921C69.3251 125.337 69.2403 125.712 69.0706 126.048C68.9009 126.38 68.6662 126.644 68.3666 126.839C68.0705 127.034 67.7329 127.131 67.3538 127.131ZM67.343 126.319C67.6246 126.319 67.8304 126.201 67.9604 125.967C68.0904 125.728 68.1553 125.384 68.1553 124.932C68.1553 124.459 68.0886 124.1 67.955 123.855C67.8214 123.609 67.6174 123.486 67.343 123.486C67.0686 123.486 66.8646 123.611 66.731 123.86C66.6011 124.106 66.5361 124.463 66.5361 124.932C66.5361 125.38 66.6011 125.723 66.731 125.961C66.861 126.2 67.065 126.319 67.343 126.319Z" fill="black"/>
<path d="M75.0372 127.023V119.192H76.1961V127.023H75.0372ZM78.0812 127.023V121.423H79.213V122.23C79.3033 122.078 79.4242 121.936 79.5759 121.802C79.7311 121.668 79.9207 121.56 80.1445 121.477C80.372 121.394 80.6337 121.353 80.9298 121.353C81.28 121.353 81.6031 121.423 81.8992 121.564C82.1988 121.701 82.4389 121.918 82.6194 122.214C82.8 122.506 82.8902 122.885 82.8902 123.351V127.023H81.7313V123.475C81.7313 123.075 81.623 122.777 81.4064 122.582C81.1933 122.387 80.9171 122.289 80.5778 122.289C80.3503 122.289 80.1337 122.327 79.9279 122.403C79.7221 122.479 79.556 122.595 79.4297 122.75C79.3033 122.901 79.2401 123.093 79.2401 123.324V127.023H78.0812ZM86.7846 127.131C86.2792 127.131 85.8297 127.021 85.4361 126.801C85.0426 126.577 84.7339 126.25 84.5101 125.82C84.2862 125.387 84.1743 124.862 84.1743 124.245C84.1743 123.663 84.2772 123.152 84.483 122.712C84.6924 122.271 84.9921 121.928 85.382 121.683C85.7719 121.437 86.2395 121.315 86.7846 121.315C87.207 121.315 87.5807 121.398 87.9056 121.564C88.2306 121.726 88.4941 121.954 88.6963 122.246C88.9021 122.539 89.0267 122.88 89.07 123.27H88.0627C88.0338 123.086 87.9652 122.914 87.8569 122.755C87.7486 122.596 87.606 122.47 87.4291 122.376C87.2522 122.279 87.041 122.23 86.7955 122.23C86.3442 122.23 85.9777 122.394 85.6961 122.723C85.4145 123.051 85.2737 123.555 85.2737 124.234C85.2737 124.855 85.4055 125.349 85.669 125.718C85.9326 126.086 86.3135 126.27 86.8117 126.27C87.0572 126.27 87.2684 126.219 87.4453 126.118C87.6222 126.017 87.763 125.887 87.8677 125.728C87.9761 125.57 88.0446 125.405 88.0735 125.236H89.0592C89.0158 125.611 88.8913 125.941 88.6855 126.227C88.4833 126.512 88.2198 126.734 87.8948 126.893C87.5699 127.052 87.1998 127.131 86.7846 127.131ZM90.43 127.023V121.423H91.5402V122.571C91.6341 122.297 91.764 122.067 91.9301 121.883C92.0998 121.696 92.2966 121.555 92.5204 121.461C92.7442 121.363 92.9807 121.315 93.2298 121.315C93.3057 121.315 93.3779 121.32 93.4465 121.331C93.5151 121.338 93.5692 121.353 93.6089 121.374V122.49C93.562 122.468 93.5006 122.454 93.4248 122.447C93.3526 122.439 93.2894 122.434 93.2353 122.43C92.9898 122.412 92.7659 122.425 92.5637 122.468C92.3615 122.512 92.1864 122.584 92.0384 122.685C91.894 122.786 91.7821 122.918 91.7026 123.08C91.6268 123.243 91.5889 123.434 91.5889 123.654V127.023H90.43ZM97.1954 127.131C96.6647 127.131 96.1971 127.017 95.7928 126.79C95.3884 126.559 95.0725 126.23 94.845 125.804C94.6212 125.378 94.5093 124.871 94.5093 124.282C94.5093 123.701 94.6122 123.188 94.818 122.744C95.0238 122.297 95.3216 121.946 95.7115 121.694C96.1015 121.441 96.5708 121.315 97.1196 121.315C97.6575 121.315 98.1124 121.43 98.4843 121.661C98.8562 121.892 99.1378 122.217 99.3291 122.636C99.5205 123.051 99.6162 123.542 99.6162 124.109V124.494H95.6736C95.67 124.829 95.7242 125.131 95.8361 125.398C95.948 125.662 96.1141 125.871 96.3343 126.026C96.5582 126.178 96.8362 126.254 97.1683 126.254C97.5041 126.254 97.7929 126.178 98.0348 126.026C98.2803 125.875 98.441 125.649 98.5168 125.349H99.5891C99.5241 125.732 99.3707 126.057 99.1288 126.324C98.8869 126.591 98.5962 126.793 98.2569 126.931C97.9175 127.064 97.5637 127.131 97.1954 127.131ZM95.6736 123.741H98.5114C98.5114 123.448 98.4608 123.183 98.3598 122.945C98.2587 122.703 98.1034 122.513 97.894 122.376C97.6882 122.235 97.4283 122.165 97.1142 122.165C96.7928 122.165 96.5257 122.243 96.3127 122.398C96.0997 122.553 95.939 122.752 95.8307 122.994C95.726 123.235 95.6736 123.485 95.6736 123.741ZM102.578 127.131C102.217 127.131 101.896 127.066 101.614 126.936C101.336 126.806 101.118 126.618 100.959 126.373C100.8 126.127 100.721 125.831 100.721 125.485C100.721 124.864 100.939 124.4 101.376 124.093C101.816 123.786 102.52 123.624 103.488 123.605L104.409 123.578V123.172C104.409 122.851 104.313 122.598 104.122 122.414C103.93 122.23 103.634 122.14 103.234 122.143C102.937 122.143 102.672 122.212 102.437 122.349C102.203 122.486 102.049 122.712 101.977 123.026H100.975C100.997 122.654 101.103 122.342 101.295 122.089C101.49 121.833 101.757 121.64 102.096 121.51C102.436 121.38 102.833 121.315 103.288 121.315C103.8 121.315 104.221 121.385 104.55 121.526C104.878 121.663 105.122 121.865 105.281 122.132C105.443 122.4 105.524 122.725 105.524 123.107V127.023H104.539L104.452 125.994C104.243 126.423 103.977 126.721 103.656 126.887C103.335 127.05 102.975 127.131 102.578 127.131ZM102.941 126.324C103.118 126.324 103.293 126.293 103.466 126.232C103.64 126.167 103.797 126.08 103.938 125.972C104.078 125.86 104.19 125.736 104.273 125.598C104.36 125.461 104.405 125.32 104.409 125.176V124.25L103.651 124.266C103.264 124.27 102.936 124.309 102.665 124.385C102.398 124.461 102.192 124.578 102.048 124.737C101.907 124.896 101.836 125.107 101.836 125.371C101.836 125.671 101.939 125.905 102.145 126.075C102.354 126.241 102.62 126.324 102.941 126.324ZM109.15 127.131C108.76 127.131 108.394 127.07 108.051 126.947C107.711 126.824 107.426 126.631 107.195 126.367C106.968 126.104 106.825 125.766 106.767 125.355H107.802C107.849 125.568 107.937 125.745 108.067 125.885C108.201 126.023 108.359 126.126 108.544 126.194C108.731 126.259 108.932 126.292 109.145 126.292C109.499 126.292 109.786 126.228 110.006 126.102C110.226 125.972 110.336 125.774 110.336 125.506C110.336 125.315 110.277 125.162 110.157 125.046C110.038 124.93 109.852 124.846 109.6 124.791L108.484 124.526C108.022 124.418 107.652 124.246 107.374 124.012C107.096 123.773 106.955 123.441 106.951 123.015C106.951 122.687 107.033 122.394 107.195 122.138C107.361 121.882 107.607 121.681 107.932 121.537C108.26 121.389 108.665 121.315 109.145 121.315C109.777 121.315 110.284 121.455 110.667 121.737C111.053 122.019 111.251 122.427 111.262 122.961H110.26C110.224 122.705 110.107 122.504 109.908 122.36C109.713 122.212 109.455 122.138 109.134 122.138C108.802 122.138 108.529 122.205 108.316 122.338C108.103 122.468 107.997 122.669 107.997 122.939C107.997 123.123 108.074 123.27 108.229 123.378C108.388 123.483 108.621 123.569 108.928 123.638L109.99 123.903C110.264 123.976 110.49 124.071 110.667 124.19C110.843 124.306 110.982 124.434 111.084 124.575C111.185 124.716 111.255 124.862 111.295 125.014C111.338 125.165 111.36 125.308 111.36 125.441C111.36 125.795 111.269 126.098 111.089 126.351C110.912 126.6 110.659 126.793 110.331 126.931C110.002 127.064 109.609 127.131 109.15 127.131ZM115.142 127.131C114.611 127.131 114.144 127.017 113.74 126.79C113.335 126.559 113.019 126.23 112.792 125.804C112.568 125.378 112.456 124.871 112.456 124.282C112.456 123.701 112.559 123.188 112.765 122.744C112.97 122.297 113.268 121.946 113.658 121.694C114.048 121.441 114.518 121.315 115.066 121.315C115.604 121.315 116.059 121.43 116.431 121.661C116.803 121.892 117.085 122.217 117.276 122.636C117.467 123.051 117.563 123.542 117.563 124.109V124.494H113.62C113.617 124.829 113.671 125.131 113.783 125.398C113.895 125.662 114.061 125.871 114.281 126.026C114.505 126.178 114.783 126.254 115.115 126.254C115.451 126.254 115.74 126.178 115.982 126.026C116.227 125.875 116.388 125.649 116.464 125.349H117.536C117.471 125.732 117.317 126.057 117.076 126.324C116.834 126.591 116.543 126.793 116.204 126.931C115.864 127.064 115.51 127.131 115.142 127.131ZM113.62 123.741H116.458C116.458 123.448 116.408 123.183 116.306 122.945C116.205 122.703 116.05 122.513 115.841 122.376C115.635 122.235 115.375 122.165 115.061 122.165C114.74 122.165 114.472 122.243 114.259 122.398C114.046 122.553 113.886 122.752 113.777 122.994C113.673 123.235 113.62 123.485 113.62 123.741ZM121.822 127.023V119.192H126.826L126.821 120.188H123.003V122.609H126.399V123.595H123.003V127.023H121.822ZM128.209 127.023V121.423H129.319V122.571C129.413 122.297 129.543 122.067 129.709 121.883C129.879 121.696 130.075 121.555 130.299 121.461C130.523 121.363 130.76 121.315 131.009 121.315C131.084 121.315 131.157 121.32 131.225 121.331C131.294 121.338 131.348 121.353 131.388 121.374V122.49C131.341 122.468 131.279 122.454 131.204 122.447C131.131 122.439 131.068 122.434 131.014 122.43C130.769 122.412 130.545 122.425 130.343 122.468C130.14 122.512 129.965 122.584 129.817 122.685C129.673 122.786 129.561 122.918 129.481 123.08C129.406 123.243 129.368 123.434 129.368 123.654V127.023H128.209ZM134.844 127.131C134.321 127.131 133.864 127.019 133.474 126.795C133.084 126.568 132.781 126.239 132.564 125.81C132.348 125.38 132.239 124.86 132.239 124.25C132.239 123.661 132.342 123.147 132.548 122.706C132.754 122.266 133.05 121.925 133.436 121.683C133.826 121.437 134.297 121.315 134.85 121.315C135.377 121.315 135.833 121.43 136.22 121.661C136.606 121.889 136.906 122.223 137.119 122.663C137.332 123.1 137.438 123.629 137.438 124.25C137.438 124.817 137.339 125.317 137.14 125.75C136.942 126.183 136.649 126.523 136.263 126.768C135.88 127.01 135.407 127.131 134.844 127.131ZM134.85 126.237C135.171 126.237 135.438 126.154 135.651 125.988C135.864 125.819 136.025 125.582 136.133 125.279C136.241 124.972 136.296 124.618 136.296 124.217C136.296 123.846 136.247 123.508 136.149 123.205C136.055 122.898 135.902 122.654 135.689 122.474C135.48 122.293 135.2 122.203 134.85 122.203C134.528 122.203 134.258 122.286 134.037 122.452C133.821 122.614 133.658 122.847 133.55 123.151C133.442 123.45 133.387 123.806 133.387 124.217C133.387 124.582 133.436 124.918 133.534 125.225C133.631 125.532 133.786 125.777 133.999 125.961C134.216 126.145 134.499 126.237 134.85 126.237ZM138.812 127.023V121.423H139.939V122.23C140.098 121.984 140.314 121.771 140.589 121.591C140.863 121.407 141.217 121.315 141.65 121.315C141.852 121.315 142.056 121.349 142.262 121.418C142.471 121.486 142.663 121.589 142.836 121.726C143.013 121.86 143.152 122.026 143.253 122.224C143.43 121.957 143.666 121.739 143.963 121.569C144.259 121.4 144.591 121.315 144.959 121.315C145.158 121.315 145.363 121.347 145.576 121.412C145.789 121.474 145.986 121.58 146.167 121.732C146.351 121.88 146.499 122.085 146.611 122.349C146.726 122.613 146.784 122.947 146.784 123.351V127.023H145.62V123.475C145.62 123.169 145.567 122.929 145.463 122.755C145.362 122.582 145.228 122.461 145.062 122.392C144.899 122.32 144.726 122.284 144.542 122.284C144.376 122.284 144.203 122.317 144.022 122.382C143.842 122.447 143.688 122.555 143.562 122.706C143.435 122.858 143.372 123.064 143.372 123.324V127.023H142.213V123.226C142.213 123.021 142.157 122.847 142.045 122.706C141.937 122.566 141.8 122.461 141.634 122.392C141.471 122.32 141.309 122.284 141.146 122.284C140.966 122.284 140.785 122.32 140.605 122.392C140.424 122.465 140.273 122.578 140.15 122.734C140.031 122.885 139.971 123.082 139.971 123.324V127.023H138.812ZM152.999 127.023V120.248H150.519V119.192H156.536V120.248H154.169V127.023H152.999ZM158.621 127.131C158.26 127.131 157.939 127.066 157.657 126.936C157.379 126.806 157.161 126.618 157.002 126.373C156.843 126.127 156.764 125.831 156.764 125.485C156.764 124.864 156.982 124.4 157.419 124.093C157.859 123.786 158.563 123.624 159.531 123.605L160.452 123.578V123.172C160.452 122.851 160.356 122.598 160.165 122.414C159.973 122.23 159.677 122.14 159.276 122.143C158.98 122.143 158.715 122.212 158.48 122.349C158.246 122.486 158.092 122.712 158.02 123.026H157.018C157.04 122.654 157.146 122.342 157.338 122.089C157.533 121.833 157.8 121.64 158.139 121.51C158.478 121.38 158.876 121.315 159.331 121.315C159.843 121.315 160.264 121.385 160.592 121.526C160.921 121.663 161.165 121.865 161.323 122.132C161.486 122.4 161.567 122.725 161.567 123.107V127.023H160.582L160.495 125.994C160.285 126.423 160.02 126.721 159.699 126.887C159.377 127.05 159.018 127.131 158.621 127.131ZM158.984 126.324C159.161 126.324 159.336 126.293 159.509 126.232C159.683 126.167 159.84 126.08 159.98 125.972C160.121 125.86 160.233 125.736 160.316 125.598C160.403 125.461 160.448 125.32 160.452 125.176V124.25L159.693 124.266C159.307 124.27 158.979 124.309 158.708 124.385C158.441 124.461 158.235 124.578 158.09 124.737C157.95 124.896 157.879 125.107 157.879 125.371C157.879 125.671 157.982 125.905 158.188 126.075C158.397 126.241 158.663 126.324 158.984 126.324ZM163.161 127.023V121.423H164.271V122.571C164.365 122.297 164.495 122.067 164.661 121.883C164.831 121.696 165.027 121.555 165.251 121.461C165.475 121.363 165.712 121.315 165.961 121.315C166.037 121.315 166.109 121.32 166.177 121.331C166.246 121.338 166.3 121.353 166.34 121.374V122.49C166.293 122.468 166.231 122.454 166.156 122.447C166.083 122.439 166.02 122.434 165.966 122.43C165.721 122.412 165.497 122.425 165.295 122.468C165.092 122.512 164.917 122.584 164.769 122.685C164.625 122.786 164.513 122.918 164.434 123.08C164.358 123.243 164.32 123.434 164.32 123.654V127.023H163.161ZM169.837 128.875C168.927 128.875 168.223 128.747 167.724 128.49C167.226 128.238 166.977 127.884 166.977 127.429C166.977 127.23 167.024 127.062 167.118 126.925C167.215 126.784 167.329 126.669 167.459 126.579C167.593 126.488 167.715 126.418 167.827 126.367C167.939 126.313 168.011 126.275 168.044 126.254C167.983 126.218 167.903 126.172 167.806 126.118C167.712 126.061 167.627 125.985 167.551 125.891C167.475 125.793 167.437 125.667 167.437 125.512C167.437 125.331 167.522 125.165 167.692 125.014C167.865 124.858 168.125 124.745 168.472 124.672C168.132 124.506 167.869 124.282 167.681 124.001C167.493 123.719 167.399 123.42 167.399 123.102C167.399 122.737 167.502 122.423 167.708 122.16C167.914 121.892 168.203 121.688 168.575 121.548C168.95 121.407 169.391 121.336 169.896 121.336C170.268 121.336 170.577 121.378 170.822 121.461C171.071 121.544 171.301 121.659 171.51 121.807C171.579 121.782 171.676 121.744 171.802 121.694C171.932 121.64 172.073 121.582 172.225 121.52C172.376 121.459 172.521 121.4 172.658 121.342C172.799 121.284 172.913 121.237 172.999 121.201L172.994 122.208L172.019 122.387C172.07 122.495 172.109 122.614 172.138 122.744C172.171 122.874 172.187 122.994 172.187 123.102C172.187 123.427 172.098 123.726 171.922 124.001C171.745 124.272 171.479 124.488 171.125 124.651C170.772 124.813 170.329 124.894 169.799 124.894C169.748 124.894 169.683 124.894 169.604 124.894C169.524 124.891 169.457 124.885 169.403 124.878C169.067 124.889 168.836 124.929 168.71 124.997C168.584 125.062 168.521 125.134 168.521 125.214C168.521 125.315 168.602 125.384 168.764 125.42C168.927 125.456 169.194 125.486 169.566 125.512C169.699 125.523 169.869 125.533 170.075 125.544C170.284 125.555 170.515 125.57 170.768 125.588C171.382 125.624 171.849 125.777 172.171 126.048C172.496 126.319 172.658 126.678 172.658 127.126C172.658 127.638 172.425 128.057 171.959 128.382C171.494 128.711 170.786 128.875 169.837 128.875ZM170.037 128.165C170.532 128.165 170.905 128.093 171.158 127.949C171.411 127.808 171.537 127.597 171.537 127.315C171.537 127.106 171.456 126.934 171.293 126.801C171.131 126.667 170.887 126.589 170.562 126.568L169.067 126.47C168.919 126.463 168.771 126.496 168.623 126.568C168.479 126.64 168.36 126.741 168.266 126.871C168.172 126.997 168.125 127.138 168.125 127.293C168.125 127.575 168.28 127.79 168.591 127.938C168.901 128.09 169.383 128.165 170.037 128.165ZM169.831 124.185C170.207 124.185 170.508 124.095 170.735 123.914C170.967 123.73 171.082 123.466 171.082 123.123C171.082 122.77 170.967 122.497 170.735 122.306C170.508 122.111 170.207 122.013 169.831 122.013C169.452 122.013 169.145 122.111 168.91 122.306C168.679 122.501 168.564 122.773 168.564 123.123C168.564 123.456 168.674 123.716 168.894 123.903C169.118 124.091 169.43 124.185 169.831 124.185ZM176.529 127.131C175.998 127.131 175.531 127.017 175.126 126.79C174.722 126.559 174.406 126.23 174.179 125.804C173.955 125.378 173.843 124.871 173.843 124.282C173.843 123.701 173.946 123.188 174.152 122.744C174.357 122.297 174.655 121.946 175.045 121.694C175.435 121.441 175.904 121.315 176.453 121.315C176.991 121.315 177.446 121.43 177.818 121.661C178.19 121.892 178.471 122.217 178.663 122.636C178.854 123.051 178.95 123.542 178.95 124.109V124.494H175.007C175.004 124.829 175.058 125.131 175.17 125.398C175.282 125.662 175.448 125.871 175.668 126.026C175.892 126.178 176.17 126.254 176.502 126.254C176.838 126.254 177.127 126.178 177.368 126.026C177.614 125.875 177.775 125.649 177.85 125.349H178.923C178.858 125.732 178.704 126.057 178.462 126.324C178.221 126.591 177.93 126.793 177.591 126.931C177.251 127.064 176.897 127.131 176.529 127.131ZM175.007 123.741H177.845C177.845 123.448 177.795 123.183 177.693 122.945C177.592 122.703 177.437 122.513 177.228 122.376C177.022 122.235 176.762 122.165 176.448 122.165C176.127 122.165 175.859 122.243 175.646 122.398C175.433 122.553 175.273 122.752 175.164 122.994C175.06 123.235 175.007 123.485 175.007 123.741ZM182.295 127.061C181.88 127.061 181.559 127.005 181.331 126.893C181.104 126.781 180.945 126.62 180.855 126.411C180.764 126.198 180.719 125.941 180.719 125.642V122.257H179.809V121.423H180.757L181.039 119.777H181.883V121.418H183.14V122.257H181.883L181.889 125.598C181.889 125.783 181.907 125.918 181.943 126.005C181.983 126.088 182.048 126.142 182.138 126.167C182.232 126.189 182.358 126.2 182.517 126.2H183.167V126.952C183.098 126.981 182.992 127.006 182.847 127.028C182.707 127.05 182.523 127.061 182.295 127.061Z" fill="#8D8D8D"/>
<path d="M33.848 96V77.589H29.462V74.784C30.8673 74.784 32.0007 74.6537 32.862 74.393C33.7347 74.121 34.3863 73.7357 34.817 73.237C35.2477 72.727 35.5027 72.1207 35.582 71.418H38.88V96H33.848ZM54.749 96.374C53.1396 96.374 51.6436 96.1247 50.261 95.626C48.8783 95.1273 47.6826 94.4473 46.674 93.586C45.6653 92.7133 44.9003 91.716 44.379 90.594L48.255 88.299C48.697 89.0697 49.1956 89.7667 49.751 90.39C50.3063 91.002 50.9466 91.4893 51.672 91.852C52.4086 92.2033 53.2643 92.379 54.239 92.379C55.7123 92.379 56.8966 91.988 57.792 91.206C58.6873 90.424 59.135 89.404 59.135 88.146C59.135 87.3527 58.931 86.6443 58.523 86.021C58.1263 85.3863 57.5766 84.8877 56.874 84.525C56.1713 84.1623 55.3496 83.981 54.409 83.981C53.9103 83.981 53.4343 84.0263 52.981 84.117C52.539 84.1963 52.0856 84.355 51.621 84.593C51.1676 84.8197 50.6633 85.1483 50.108 85.579C49.9493 85.647 49.836 85.681 49.768 85.681C49.7113 85.681 49.598 85.6413 49.428 85.562L45.824 83.896L46.946 71.418H62.739L62.552 75.481H50.873L50.397 81.414C51.3036 80.904 52.165 80.5357 52.981 80.309C53.8083 80.0823 54.715 79.969 55.701 79.969C57.3443 79.969 58.812 80.2807 60.104 80.904C61.4073 81.516 62.4386 82.417 63.198 83.607C63.9573 84.797 64.337 86.2477 64.337 87.959C64.337 89.693 63.946 91.189 63.164 92.447C62.382 93.705 61.2713 94.674 59.832 95.354C58.404 96.034 56.7096 96.374 54.749 96.374ZM77.1483 96.374C74.1677 96.374 71.8387 95.2917 70.1613 93.127C68.4953 90.9623 67.6623 87.8457 67.6623 83.777C67.6623 81.057 68.0477 78.7507 68.8183 76.858C69.589 74.9653 70.6827 73.5317 72.0993 72.557C73.516 71.571 75.199 71.078 77.1483 71.078C80.0723 71.078 82.3787 72.1717 84.0673 74.359C85.756 76.535 86.6003 79.6687 86.6003 83.76C86.6003 87.8287 85.7673 90.951 84.1013 93.127C82.4353 95.2917 80.1177 96.374 77.1483 96.374ZM77.1483 92.311C78.6103 92.311 79.6813 91.6593 80.3613 90.356C81.0413 89.0413 81.3813 86.8483 81.3813 83.777C81.3813 80.6377 81.0357 78.388 80.3443 77.028C79.653 75.668 78.582 74.988 77.1313 74.988C75.6807 74.988 74.5983 75.6737 73.8843 77.045C73.1817 78.4163 72.8303 80.6603 72.8303 83.777C72.8303 86.837 73.1817 89.0243 73.8843 90.339C74.587 91.6537 75.675 92.311 77.1483 92.311ZM99.3028 96.374C96.3221 96.374 93.9931 95.2917 92.3158 93.127C90.6498 90.9623 89.8168 87.8457 89.8168 83.777C89.8168 81.057 90.2021 78.7507 90.9728 76.858C91.7434 74.9653 92.8371 73.5317 94.2538 72.557C95.6704 71.571 97.3534 71.078 99.3028 71.078C102.227 71.078 104.533 72.1717 106.222 74.359C107.91 76.535 108.755 79.6687 108.755 83.76C108.755 87.8287 107.922 90.951 106.256 93.127C104.59 95.2917 102.272 96.374 99.3028 96.374ZM99.3028 92.311C100.765 92.311 101.836 91.6593 102.516 90.356C103.196 89.0413 103.536 86.8483 103.536 83.777C103.536 80.6377 103.19 78.388 102.499 77.028C101.807 75.668 100.736 74.988 99.2858 74.988C97.8351 74.988 96.7528 75.6737 96.0388 77.045C95.3361 78.4163 94.9848 80.6603 94.9848 83.777C94.9848 86.837 95.3361 89.0243 96.0388 90.339C96.7414 91.6537 97.8294 92.311 99.3028 92.311ZM118.786 91.648V75.583H122.407V91.648H118.786ZM112.547 85.443V81.822H128.612V85.443H112.547Z" fill="black"/>
<path d="M34 118L39.1962 127H28.8038L34 118Z" fill="#02B928"/>
<path d="M227.814 78.6064C227.129 78.6064 226.49 78.4745 225.896 78.2107C225.303 77.9469 224.818 77.5765 224.443 77.0996C224.067 76.6177 223.857 76.0546 223.811 75.4103H225.927C226.018 75.8364 226.221 76.1839 226.535 76.4528C226.85 76.7166 227.246 76.8485 227.722 76.8485C228.25 76.8485 228.712 76.7242 229.107 76.4756C229.508 76.2271 229.808 75.8314 230.005 75.2885C230.208 74.7457 230.279 74.0355 230.218 73.1578C230.076 73.4267 229.879 73.6626 229.625 73.8655C229.376 74.0634 229.085 74.2181 228.75 74.3297C228.415 74.4362 228.042 74.4895 227.631 74.4895C226.885 74.4895 226.223 74.35 225.645 74.071C225.072 73.7869 224.62 73.3861 224.29 72.8686C223.966 72.3461 223.803 71.7272 223.803 71.0118C223.803 70.2915 223.976 69.6497 224.321 69.0866C224.666 68.5235 225.148 68.0821 225.767 67.7625C226.386 67.4429 227.111 67.2831 227.943 67.2831C228.877 67.2831 229.681 67.5063 230.355 67.9527C231.035 68.3941 231.555 69.0232 231.915 69.8399C232.281 70.6516 232.463 71.6079 232.463 72.7088C232.463 74.0228 232.276 75.1186 231.9 75.9962C231.53 76.8688 230.997 77.5233 230.302 77.9596C229.607 78.3908 228.778 78.6064 227.814 78.6064ZM228.012 72.724C228.321 72.724 228.62 72.6555 228.91 72.5186C229.204 72.3765 229.445 72.199 229.633 71.9859C229.82 71.7728 229.914 71.5521 229.914 71.3238C229.919 70.8317 229.841 70.4107 229.678 70.0606C229.521 69.7055 229.298 69.4341 229.009 69.2464C228.724 69.0587 228.392 68.9648 228.012 68.9648C227.662 68.9648 227.35 69.046 227.076 69.2083C226.802 69.3707 226.586 69.599 226.429 69.8932C226.272 70.1875 226.193 70.5274 226.193 70.9129C226.193 71.4862 226.36 71.9326 226.695 72.2522C227.03 72.5668 227.469 72.724 228.012 72.724ZM237.954 78.6064C237.269 78.6064 236.63 78.4745 236.036 78.2107C235.443 77.9469 234.958 77.5765 234.583 77.0996C234.207 76.6177 233.997 76.0546 233.951 75.4103H236.067C236.158 75.8364 236.361 76.1839 236.675 76.4528C236.99 76.7166 237.386 76.8485 237.862 76.8485C238.39 76.8485 238.852 76.7242 239.247 76.4756C239.648 76.2271 239.948 75.8314 240.145 75.2885C240.348 74.7457 240.419 74.0355 240.358 73.1578C240.216 73.4267 240.019 73.6626 239.765 73.8655C239.516 74.0634 239.225 74.2181 238.89 74.3297C238.555 74.4362 238.182 74.4895 237.771 74.4895C237.025 74.4895 236.363 74.35 235.785 74.071C235.212 73.7869 234.76 73.3861 234.43 72.8686C234.106 72.3461 233.943 71.7272 233.943 71.0118C233.943 70.2915 234.116 69.6497 234.461 69.0866C234.806 68.5235 235.288 68.0821 235.907 67.7625C236.526 67.4429 237.251 67.2831 238.083 67.2831C239.017 67.2831 239.821 67.5063 240.495 67.9527C241.175 68.3941 241.695 69.0232 242.055 69.8399C242.421 70.6516 242.603 71.6079 242.603 72.7088C242.603 74.0228 242.416 75.1186 242.04 75.9962C241.67 76.8688 241.137 77.5233 240.442 77.9596C239.747 78.3908 238.918 78.6064 237.954 78.6064ZM238.152 72.724C238.461 72.724 238.76 72.6555 239.05 72.5186C239.344 72.3765 239.585 72.199 239.773 71.9859C239.96 71.7728 240.054 71.5521 240.054 71.3238C240.059 70.8317 239.981 70.4107 239.818 70.0606C239.661 69.7055 239.438 69.4341 239.149 69.2464C238.864 69.0587 238.532 68.9648 238.152 68.9648C237.802 68.9648 237.49 69.046 237.216 69.2083C236.942 69.3707 236.726 69.599 236.569 69.8932C236.412 70.1875 236.333 70.5274 236.333 70.9129C236.333 71.4862 236.5 71.9326 236.835 72.2522C237.17 72.5668 237.609 72.724 238.152 72.724ZM246.053 78.4998L253.488 67.3135H254.774L247.377 78.4998H246.053ZM246.921 73.5078C246.393 73.5078 245.919 73.3709 245.498 73.0969C245.077 72.8179 244.744 72.445 244.501 71.9783C244.257 71.5115 244.136 70.9916 244.136 70.4183C244.136 69.8349 244.257 69.3047 244.501 68.8278C244.749 68.351 245.084 67.973 245.505 67.694C245.926 67.4099 246.398 67.2678 246.921 67.2678C247.443 67.2678 247.913 67.4099 248.329 67.694C248.745 67.973 249.074 68.351 249.318 68.8278C249.561 69.3047 249.683 69.8349 249.683 70.4183C249.683 70.9916 249.564 71.5115 249.325 71.9783C249.087 72.445 248.757 72.8179 248.336 73.0969C247.92 73.3709 247.448 73.5078 246.921 73.5078ZM246.906 72.3816C247.306 72.3816 247.598 72.2167 247.781 71.887C247.963 71.5521 248.055 71.0626 248.055 70.4183C248.055 69.7537 247.961 69.2489 247.773 68.9039C247.585 68.559 247.296 68.3865 246.906 68.3865C246.52 68.3865 246.233 68.5615 246.046 68.9115C245.858 69.2565 245.764 69.7588 245.764 70.4183C245.764 71.0575 245.855 71.5445 246.038 71.8794C246.226 72.2142 246.515 72.3816 246.906 72.3816ZM254.142 78.5912C253.61 78.5912 253.133 78.4542 252.712 78.1802C252.291 77.9063 251.958 77.5359 251.715 77.0692C251.471 76.5974 251.35 76.0698 251.35 75.4864C251.35 74.903 251.471 74.3728 251.715 73.8959C251.964 73.4191 252.298 73.0411 252.719 72.7621C253.146 72.478 253.62 72.3359 254.142 72.3359C254.665 72.3359 255.134 72.478 255.55 72.7621C255.971 73.0411 256.304 73.4191 256.547 73.8959C256.791 74.3728 256.912 74.903 256.912 75.4864C256.912 76.0698 256.793 76.5974 256.555 77.0692C256.316 77.5359 255.987 77.9063 255.565 78.1802C255.149 78.4542 254.675 78.5912 254.142 78.5912ZM254.127 77.4497C254.523 77.4497 254.812 77.2848 254.995 76.9551C255.177 76.6202 255.269 76.1357 255.269 75.5016C255.269 74.837 255.175 74.3322 254.987 73.9873C254.799 73.6423 254.513 73.4698 254.127 73.4698C253.742 73.4698 253.455 73.6448 253.267 73.9949C253.085 74.3398 252.993 74.8421 252.993 75.5016C252.993 76.1307 253.085 76.6126 253.267 76.9475C253.45 77.2823 253.737 77.4497 254.127 77.4497Z" fill="black"/>
<path d="M219.72 90.5852V82.9673H220.848V90.5852H219.72ZM222.681 90.5852V85.1378H223.782V85.9228C223.87 85.7753 223.988 85.6365 224.135 85.5066C224.286 85.3766 224.471 85.2713 224.689 85.1905C224.91 85.1097 225.165 85.0693 225.453 85.0693C225.793 85.0693 226.108 85.1378 226.396 85.2748C226.687 85.4082 226.921 85.619 227.096 85.907C227.272 86.1914 227.36 86.5602 227.36 87.0133V90.5852H226.232V87.1345C226.232 86.7446 226.127 86.4549 225.916 86.2652C225.709 86.0755 225.44 85.9807 225.11 85.9807C224.889 85.9807 224.678 86.0176 224.478 86.0914C224.278 86.1651 224.116 86.2775 223.993 86.4285C223.87 86.576 223.809 86.7622 223.809 86.987V90.5852H222.681ZM231.148 90.6906C230.656 90.6906 230.219 90.5834 229.836 90.3692C229.453 90.1514 229.153 89.8336 228.935 89.4156C228.718 88.9942 228.609 88.4832 228.609 87.8826C228.609 87.3171 228.709 86.8201 228.909 86.3916C229.113 85.9632 229.404 85.6295 229.784 85.3907C230.163 85.1518 230.618 85.0324 231.148 85.0324C231.559 85.0324 231.923 85.1132 232.239 85.2748C232.555 85.4328 232.811 85.6541 233.008 85.9386C233.208 86.2231 233.329 86.555 233.371 86.9343H232.391C232.363 86.7552 232.297 86.5883 232.191 86.4338C232.086 86.2793 231.947 86.1563 231.775 86.065C231.603 85.9702 231.397 85.9228 231.159 85.9228C230.72 85.9228 230.363 86.0826 230.089 86.4022C229.815 86.7218 229.678 87.2117 229.678 87.872C229.678 88.4761 229.806 88.9573 230.063 89.3155C230.319 89.6738 230.69 89.8529 231.174 89.8529C231.413 89.8529 231.619 89.8037 231.791 89.7054C231.963 89.6071 232.1 89.4806 232.202 89.3261C232.307 89.1715 232.374 89.0117 232.402 88.8467H233.361C233.319 89.2119 233.197 89.5333 232.997 89.8108C232.801 90.0882 232.544 90.3042 232.228 90.4588C231.912 90.6133 231.552 90.6906 231.148 90.6906ZM234.694 90.5852V85.1378H235.774V86.2547C235.866 85.9877 235.992 85.7647 236.154 85.5856C236.319 85.403 236.51 85.266 236.728 85.1747C236.946 85.0798 237.176 85.0324 237.418 85.0324C237.492 85.0324 237.562 85.0377 237.629 85.0482C237.696 85.0553 237.748 85.0693 237.787 85.0904V86.1756C237.741 86.1546 237.681 86.1405 237.608 86.1335C237.537 86.1265 237.476 86.1212 237.423 86.1177C237.184 86.1001 236.967 86.1124 236.77 86.1546C236.573 86.1967 236.403 86.267 236.259 86.3653C236.119 86.4636 236.01 86.5918 235.932 86.7499C235.859 86.9079 235.822 87.0941 235.822 87.3083V90.5852H234.694ZM241.276 90.6906C240.759 90.6906 240.305 90.5799 239.911 90.3587C239.518 90.1339 239.211 89.8143 238.989 89.3998C238.772 88.9854 238.663 88.4919 238.663 87.9194C238.663 87.354 238.763 86.8553 238.963 86.4233C239.163 85.9877 239.453 85.6471 239.832 85.4012C240.212 85.1554 240.668 85.0324 241.202 85.0324C241.725 85.0324 242.168 85.1448 242.53 85.3696C242.891 85.5944 243.165 85.9105 243.351 86.3179C243.538 86.7218 243.631 87.1994 243.631 87.7509V88.1249H239.795C239.792 88.4515 239.845 88.7448 239.953 89.0047C240.062 89.2611 240.224 89.4648 240.438 89.6158C240.656 89.7634 240.926 89.8371 241.249 89.8371C241.576 89.8371 241.857 89.7634 242.092 89.6158C242.331 89.4683 242.487 89.2488 242.561 88.9573H243.604C243.541 89.3296 243.392 89.6457 243.157 89.9056C242.921 90.1655 242.638 90.3622 242.308 90.4956C241.978 90.6256 241.634 90.6906 241.276 90.6906ZM239.795 87.3926H242.556C242.556 87.1081 242.507 86.85 242.408 86.6182C242.31 86.3829 242.159 86.1985 241.955 86.065C241.755 85.928 241.502 85.8595 241.197 85.8595C240.884 85.8595 240.624 85.9351 240.417 86.0861C240.21 86.2371 240.054 86.4303 239.948 86.6656C239.846 86.9009 239.795 87.1433 239.795 87.3926ZM246.512 90.6906C246.161 90.6906 245.848 90.6274 245.574 90.5009C245.304 90.3745 245.092 90.1918 244.937 89.953C244.782 89.7142 244.705 89.4262 244.705 89.089C244.705 88.4849 244.918 88.0336 245.343 87.7351C245.771 87.4365 246.456 87.2785 247.397 87.2609L248.293 87.2346V86.8394C248.293 86.5269 248.2 86.281 248.014 86.1019C247.828 85.9228 247.54 85.835 247.15 85.8385C246.862 85.8385 246.604 85.9052 246.375 86.0387C246.147 86.1721 245.998 86.3916 245.927 86.6972H244.953C244.974 86.3354 245.077 86.0316 245.264 85.7858C245.453 85.5364 245.713 85.3485 246.043 85.2221C246.373 85.0956 246.76 85.0324 247.202 85.0324C247.701 85.0324 248.11 85.1009 248.43 85.2379C248.749 85.3714 248.987 85.568 249.141 85.8279C249.299 86.0878 249.378 86.4039 249.378 86.7762V90.5852H248.419L248.335 89.5842C248.131 90.0022 247.873 90.2919 247.561 90.4535C247.248 90.6115 246.899 90.6906 246.512 90.6906ZM246.865 89.9056C247.037 89.9056 247.208 89.8757 247.376 89.816C247.545 89.7528 247.698 89.6685 247.835 89.5632C247.972 89.4543 248.08 89.3331 248.161 89.1996C248.245 89.0662 248.289 88.9292 248.293 88.7887V87.8878L247.555 87.9036C247.18 87.9072 246.86 87.9458 246.596 88.0195C246.337 88.0933 246.136 88.2074 245.996 88.362C245.859 88.5165 245.79 88.722 245.79 88.9784C245.79 89.2699 245.891 89.4982 246.091 89.6633C246.294 89.8248 246.553 89.9056 246.865 89.9056ZM252.905 90.6906C252.526 90.6906 252.17 90.6309 251.836 90.5114C251.506 90.392 251.228 90.2041 251.003 89.9477C250.782 89.6914 250.643 89.363 250.587 88.9626H251.594C251.639 89.1698 251.725 89.3419 251.852 89.4789C251.982 89.6123 252.136 89.7124 252.315 89.7792C252.498 89.8424 252.693 89.874 252.9 89.874C253.244 89.874 253.523 89.8125 253.738 89.6896C253.952 89.5632 254.059 89.37 254.059 89.1101C254.059 88.9239 254.001 88.7747 253.885 88.6623C253.769 88.5499 253.588 88.4674 253.343 88.4147L252.257 88.1565C251.808 88.0512 251.448 87.8843 251.177 87.656C250.907 87.4242 250.77 87.1011 250.766 86.6867C250.766 86.3671 250.845 86.0826 251.003 85.8332C251.165 85.5838 251.404 85.3889 251.72 85.2484C252.04 85.1044 252.433 85.0324 252.9 85.0324C253.515 85.0324 254.008 85.1694 254.38 85.4434C254.756 85.7173 254.949 86.1142 254.96 86.634H253.985C253.95 86.3846 253.836 86.1897 253.643 86.0492C253.453 85.9052 253.202 85.8332 252.89 85.8332C252.566 85.8332 252.301 85.8982 252.094 86.0281C251.887 86.1546 251.783 86.3495 251.783 86.6129C251.783 86.792 251.859 86.9343 252.01 87.0396C252.164 87.1415 252.391 87.2258 252.689 87.2925L253.722 87.5507C253.989 87.6209 254.208 87.714 254.38 87.8299C254.553 87.9423 254.688 88.067 254.786 88.2039C254.884 88.3409 254.953 88.4832 254.992 88.6307C255.034 88.7782 255.055 88.9169 255.055 89.0469C255.055 89.3911 254.967 89.6861 254.791 89.9319C254.619 90.1743 254.373 90.3622 254.054 90.4956C253.734 90.6256 253.351 90.6906 252.905 90.6906ZM258.734 90.6906C258.218 90.6906 257.763 90.5799 257.37 90.3587C256.977 90.1339 256.669 89.8143 256.448 89.3998C256.23 88.9854 256.121 88.4919 256.121 87.9194C256.121 87.354 256.221 86.8553 256.422 86.4233C256.622 85.9877 256.912 85.6471 257.291 85.4012C257.67 85.1554 258.127 85.0324 258.661 85.0324C259.184 85.0324 259.626 85.1448 259.988 85.3696C260.35 85.5944 260.624 85.9105 260.81 86.3179C260.996 86.7218 261.089 87.1994 261.089 87.7509V88.1249H257.254C257.25 88.4515 257.303 88.7448 257.412 89.0047C257.521 89.2611 257.682 89.4648 257.897 89.6158C258.114 89.7634 258.385 89.8371 258.708 89.8371C259.035 89.8371 259.316 89.7634 259.551 89.6158C259.79 89.4683 259.946 89.2488 260.02 88.9573H261.063C261 89.3296 260.85 89.6457 260.615 89.9056C260.38 90.1655 260.097 90.3622 259.767 90.4956C259.437 90.6256 259.093 90.6906 258.734 90.6906ZM257.254 87.3926H260.015C260.015 87.1081 259.965 86.85 259.867 86.6182C259.769 86.3829 259.618 86.1985 259.414 86.065C259.214 85.928 258.961 85.8595 258.655 85.8595C258.343 85.8595 258.083 85.9351 257.876 86.0861C257.668 86.2371 257.512 86.4303 257.407 86.6656C257.305 86.9009 257.254 87.1433 257.254 87.3926Z" fill="black"/>
<path d="M289 79C289 105.51 267.51 127 241 127C214.49 127 193 105.51 193 79C193 52.4903 214.49 31 241 31C267.51 31 289 52.4903 289 79ZM202.061 79C202.061 100.506 219.494 117.939 241 117.939C262.506 117.939 279.939 100.506 279.939 79C279.939 57.4944 262.506 40.0607 241 40.0607C219.494 40.0607 202.061 57.4944 202.061 79Z" fill="#F3F3F3"/>
<path d="M241 35.5304C241 33.0283 243.033 30.9778 245.524 31.2135C256.464 32.2489 266.771 37.0163 274.669 44.7886C283.647 53.6248 288.792 65.6366 288.994 78.2324C289.195 90.8283 284.437 102.998 275.745 112.117C267.054 121.236 255.126 126.573 242.535 126.975C229.944 127.378 217.699 122.815 208.443 114.271C199.186 105.726 193.659 93.8849 193.055 81.3019C192.451 68.7189 196.818 56.4028 205.213 47.0107C212.598 38.7495 222.579 33.333 233.431 31.6004C235.901 31.206 238.061 33.1223 238.221 35.6193C238.381 38.1162 236.478 40.2433 234.017 40.6919C225.54 42.237 217.768 46.5619 211.969 53.0492C205.158 60.6684 201.615 70.6596 202.106 80.8674C202.596 91.0751 207.079 100.681 214.588 107.613C222.098 114.544 232.031 118.246 242.245 117.919C252.459 117.593 262.136 113.263 269.187 105.866C276.238 98.4684 280.098 88.5955 279.934 78.3773C279.771 68.1591 275.597 58.4148 268.313 51.2465C262.111 45.1431 254.078 41.3239 245.52 40.3239C243.035 40.0335 241 38.0324 241 35.5304Z" fill="#F90305"/>
</g>
<defs>
<filter id="filter0_d_6_48" x="0.9" y="0.9" width="315.2" height="156.2" filterUnits="userSpaceOnUse" color-interpolation-filters="sRGB">
<feFlood flood-opacity="0" result="BackgroundImageFix"/>
<feColorMatrix in="SourceAlpha" type="matrix" values="0 0 0 0 0 0 0 0 0 0 0 0 0 0 0 0 0 0 127 0" result="hardAlpha"/>
<feOffset/>
<feGaussianBlur stdDeviation="4.55"/>
<feComposite in2="hardAlpha" operator="out"/>
<feColorMatrix type="matrix" values="0 0 0 0 0 0 0 0 0 0 0 0 0 0 0 0 0 0 0.15 0"/>
<feBlend mode="normal" in2="BackgroundImageFix" result="effect1_dropShadow_6_48"/>
<feBlend mode="normal" in="SourceGraphic" in2="effect1_dropShadow_6_48" result="shape"/>
</filter>
</defs>
</svg>
